Coordinates
version=1
nRows=21
nColumns=12
inDegrees=yes

Units are S.I. units (second, meters, Newtons, ...)
Angles are in degrees

endheader
time	SC_y	SC_z	SC_x	AC_y	AC_z	AC_x	GH_y	GH_z	GH_yy	EL_x	PS_y
       0.0              -34.37          34.03         0.5123          39.86           1.93         -11.34          125.8          16.88          17.58          11.36          118.6
   0.04388              -34.38          34.03         0.5213          39.86           1.93         -11.34          125.8          16.88          17.55          11.37          118.6
   0.08776              -34.38          34.03         0.5309          39.86           1.93         -11.35          125.8          16.88          17.53          11.37          118.5
    0.1316              -34.38          34.02         0.5411          39.86           1.93         -11.35          125.7          16.88           17.5          11.38          118.5
    0.1755              -34.39          34.02         0.5519          39.86           1.93         -11.35          125.7          16.88          17.46          11.38          118.5
    0.2194              -34.39          34.01         0.5635          39.86           1.93         -11.35          125.7          16.88          17.43          11.39          118.5
    0.2633              -34.39          34.01         0.5758          39.86           1.93         -11.35          125.6          16.88          17.39           11.4          118.5
    0.3072               -34.4          34.01          0.589          39.86           1.93         -11.35          125.6          16.88          17.35           11.4          118.5
     0.351               -34.4           34.0         0.6031          39.86           1.93         -11.35          125.5          16.88          17.31          11.41          118.5
    0.3949              -34.41           34.0         0.6182          39.85           1.93         -11.35          125.5          16.88          17.26          11.42          118.5
    0.4388              -34.41          33.99         0.6345          39.85           1.93         -11.35          125.4          16.88          17.21          11.43          118.4
    0.4827              -34.42          33.99          0.652          39.85           1.93         -11.35          125.4          16.88          17.16          11.44          118.4
    0.5266              -34.43          33.98         0.6709          39.85           1.93         -11.35          125.3          16.88           17.1          11.45          118.4
    0.5704              -34.43          33.97         0.6913          39.85           1.93         -11.35          125.2          16.88          17.04          11.46          118.4
    0.6143              -34.44          33.97         0.7133          39.85           1.93         -11.36          125.1          16.88          16.98          11.47          118.4
    0.6582              -34.45          33.96         0.7373          39.85           1.93         -11.36          125.1          16.88           16.9          11.48          118.3
    0.7021              -34.46          33.95         0.7633          39.84           1.93         -11.36          125.0          16.88          16.83           11.5          118.3
     0.746              -34.47          33.94         0.7916          39.84           1.93         -11.36          124.9          16.88          16.74          11.51          118.3
    0.7899              -34.48          33.93         0.8225          39.84           1.93         -11.36          124.8          16.88          16.65          11.53          118.2
    0.8337              -34.49          33.92         0.8564          39.84           1.93         -11.36          124.7          16.88          16.55          11.55          118.2
    0.8776               -34.5          33.91         0.8936          39.84           1.93         -11.37          124.5          16.88          16.43          11.57          118.2
